# xmcd
#
# Track frame offsets:
#        150
#        15760
#        32230
#        55380
#
# Disc length: 1045 seconds
#
# Revision: 0
# Processed by: cddbd v1.5PL3 Copyright (c) Steve Scherf et al.
# Submitted via: ExactAudioCopy v0.95a3
#
DISCID=26041304
DTITLE=ENRIQUE IGLESIAS - BAILAMOS
DYEAR=1999
DGENRE=Latin
TTITLE0=Bailamos (Groove Brothers Radio Edit)
TTITLE1=Bailamos (Album Version)
TTITLE2=Bailamos (Groove Brothers Club Mix)
TTITLE3=Bailamos (Groove Brothers Remix Instrumental)
EXTD=
EXTT0=
EXTT1=
EXTT2=
EXTT3=
PLAYORDER=
